<?xml version="1.0" standalone="no"?>
<!DOCTYPE svg PUBLIC "-//W3C//DTD SVG 1.1//EN" "http://www.w3.org/Graphics/SVG/1.1/DTD/svg11.dtd">
<svg width="100%" height="100%" viewBox="0 0 709 709" version="1.1" xmlns="http://www.w3.org/2000/svg" xmlns:xlink="http://www.w3.org/1999/xlink" xml:space="preserve" style="fill-rule:evenodd;clip-rule:evenodd;stroke-linejoin:round;stroke-miterlimit:1.41421;">
    <g id="Layer1">
        <path d="M449.713,600.167L469.459,600.167L469.459,633.501L239.25,633.501L239.25,600.167L258.954,600.167L266.361,533.501L54.333,533.501C42.846,533.501 33.5,524.155 33.5,512.667L33.5,96C33.5,84.513 42.846,75.167 54.333,75.167L654.334,75.167C665.834,75.167 675.167,84.513 675.167,96L675.167,512.667C675.167,524.155 665.834,533.501 654.334,533.501L442.306,533.501L449.713,600.167Z" style="fill:rgb(48,49,59);"/>
        <g transform="matrix(4.16667,0,0,4.16667,-4095.67,-2467.16)">
            <path d="M1046.99,737.269L1045.01,737.048L1047.01,719.048L1048.99,719.269L1046.99,737.269Z" style="fill:rgb(240,240,240);fill-rule:nonzero;"/>
        </g>
        <g transform="matrix(4.16667,0,0,4.16667,-4095.67,-2467.16)">
            <path d="M1089.01,737.269L1087.01,719.269L1088.99,719.048L1090.99,737.048L1089.01,737.269Z" style="fill:rgb(240,240,240);fill-rule:nonzero;"/>
        </g>
        <g transform="matrix(4.16667,0,0,4.16667,-4095.67,-2467.16)">
            <path d="M993,702.158L1143,702.158L1143,615.158C1143,613.504 1141.65,612.158 1140,612.158L996,612.158C994.346,612.158 993,613.504 993,615.158L993,702.158ZM1145,704.158L991,704.158L991,615.158C991,612.401 993.243,610.158 996,610.158L1140,610.158C1142.76,610.158 1145,612.401 1145,615.158L1145,704.158Z" style="fill:rgb(240,240,240);fill-rule:nonzero;"/>
        </g>
        <g transform="matrix(4.16667,0,0,4.16667,-4095.67,-2467.16)">
            <path d="M1042.38,742.158L1093.63,742.158L1093.63,738.158L1042.38,738.158L1042.38,742.158ZM1095.63,744.158L1040.38,744.158L1040.38,736.158L1095.63,736.158L1095.63,744.158Z" style="fill:rgb(240,240,240);fill-rule:nonzero;"/>
        </g>
        <g transform="matrix(4.16667,0,0,4.16667,-4095.67,-2467.16)">
            <path d="M1140,720.158L996,720.158C993.243,720.158 991,717.915 991,715.158L991,703.158L993,703.158L993,715.158C993,716.813 994.346,718.158 996,718.158L1140,718.158C1141.65,718.158 1143,716.813 1143,715.158L1143,703.158L1145,703.158L1145,715.158C1145,717.915 1142.76,720.158 1140,720.158Z" style="fill:rgb(240,240,240);fill-rule:nonzero;"/>
        </g>
        <g transform="matrix(12.0424,0,0,12.0424,-12506.8,-8293.07)">
            <path d="M1068,709.658C1067.17,709.658 1066.5,710.331 1066.5,711.158C1066.5,711.985 1067.17,712.658 1068,712.658C1068.83,712.658 1069.5,711.985 1069.5,711.158C1069.5,710.331 1068.83,709.658 1068,709.658ZM1068,714.658C1066.07,714.658 1064.5,713.088 1064.5,711.158C1064.5,709.229 1066.07,707.658 1068,707.658C1069.93,707.658 1071.5,709.229 1071.5,711.158C1071.5,711.859 1071.29,712.513 1070.94,713.061C1070.31,714.022 1069.23,714.658 1068,714.658Z" style="fill:rgb(240,240,240);fill-rule:nonzero;"/>
        </g>
    </g>
</svg>
