<?xml version="1.0" standalone="no"?>
<!DOCTYPE svg PUBLIC "-//W3C//DTD SVG 1.1//EN" "http://www.w3.org/Graphics/SVG/1.1/DTD/svg11.dtd">
<svg width="100%" height="100%" viewBox="0 0 709 709" version="1.1" xmlns="http://www.w3.org/2000/svg" xmlns:xlink="http://www.w3.org/1999/xlink" xml:space="preserve" style="fill-rule:evenodd;clip-rule:evenodd;stroke-linejoin:round;stroke-miterlimit:1.41421;">
    <g id="Layer1" transform="matrix(1.47558,0,0,1.47558,-1081.83,-820.411)">
        <g>
            <g transform="matrix(2.03232,0,0,2.03232,452.757,289.177)">
                <g transform="matrix(1,0,0,1,1.49035,-2.499)">
                    <path d="M336.105,227.529C337.264,222.316 337.894,216.904 337.894,211.341C337.894,170.269 304.601,136.975 263.528,136.975C222.455,136.975 189.162,170.269 189.162,211.341C189.162,214.736 189.41,218.07 189.851,221.343L171.486,268.212L191.916,268.174L196.084,315.064L237.242,315.064L246.744,361.023L334.509,327.544L325.815,282.761L336.237,227.535L336.105,227.529Z" style="fill:rgb(48,49,59);fill-rule:nonzero;"/>
                </g>
                <path d="M244.891,364.406L235.206,317.564L193.796,317.564L189.629,270.679L167.819,270.719L187.289,221.03C186.873,217.746 186.662,214.49 186.662,211.342C186.662,168.958 221.144,134.476 263.528,134.476C305.912,134.476 340.394,168.958 340.394,211.342C340.394,215.955 339.969,220.599 339.13,225.184L339.223,225.188L328.359,282.754L337.363,329.131L244.891,364.406ZM198.372,312.564L239.278,312.564L248.597,357.64L331.654,325.957L323.269,282.768L323.357,282.298L333.249,229.883L333.023,229.871L333.665,226.986C334.812,221.825 335.394,216.562 335.394,211.341C335.394,171.714 303.155,139.475 263.528,139.475C223.901,139.475 191.662,171.714 191.662,211.341C191.662,214.474 191.887,217.726 192.329,221.009L192.416,221.652L175.153,265.706L194.203,265.67L198.372,312.564Z" style="fill:rgb(207,207,210);fill-rule:nonzero;"/>
                <g transform="matrix(0.14313,0,0,0.14313,183.714,202.495)">
                    <circle cx="264" cy="209" r="40" style="fill:white;"/>
                </g>
                <g transform="matrix(0.169592,0,0,0.169592,176.728,196.964)">
                    <circle cx="264" cy="209" r="40" style="fill:none;stroke-width:18.13px;stroke:rgb(207,207,210);"/>
                </g>
            </g>
            <g transform="matrix(2.03232,0,0,2.03232,469.757,267.177)">
                <circle cx="264" cy="209" r="40" style="fill:white;"/>
                <path d="M264,251.5C240.565,251.5 221.5,232.435 221.5,209C221.5,185.565 240.565,166.5 264,166.5C287.435,166.5 306.5,185.565 306.5,209C306.5,232.435 287.435,251.5 264,251.5ZM264,171.5C243.322,171.5 226.5,188.322 226.5,209C226.5,229.678 243.322,246.5 264,246.5C284.678,246.5 301.5,229.678 301.5,209C301.5,188.322 284.678,171.5 264,171.5Z" style="fill:rgb(207,207,210);fill-rule:nonzero;stroke-width:0.33px;stroke:rgb(207,207,210);"/>
            </g>
        </g>
        <g transform="matrix(2.03232,0,0,2.03232,469.757,267.177)">
            <path d="M288,201L272,201L272,185L256,185L256,201L240,201L240,217L256,217L256,233L272,233L272,217L288,217L288,201Z" style="fill:rgb(189,81,110);fill-rule:nonzero;"/>
            <path d="M274.5,235.5L253.5,235.5L253.5,219.5L237.5,219.5L237.5,198.5L253.5,198.5L253.5,182.5L274.5,182.5L274.5,198.5L290.5,198.5L290.5,219.5L274.5,219.5L274.5,235.5ZM258.5,230.5L269.5,230.5L269.5,214.5L285.5,214.5L285.5,203.5L269.5,203.5L269.5,187.5L258.5,187.5L258.5,203.5L242.5,203.5L242.5,214.5L258.5,214.5L258.5,230.5Z" style="fill:rgb(207,207,210);fill-rule:nonzero;stroke-width:0.33px;stroke:rgb(207,207,210);"/>
        </g>
    </g>
</svg>
