<?xml version="1.0" standalone="no"?>
<!DOCTYPE svg PUBLIC "-//W3C//DTD SVG 1.1//EN" "http://www.w3.org/Graphics/SVG/1.1/DTD/svg11.dtd">
<svg width="100%" height="100%" viewBox="0 0 886 237" version="1.1" xmlns="http://www.w3.org/2000/svg" xmlns:xlink="http://www.w3.org/1999/xlink" xml:space="preserve" style="fill-rule:evenodd;clip-rule:evenodd;stroke-linecap:round;stroke-linejoin:round;stroke-miterlimit:1.41421;">
    <g id="F3" transform="matrix(1.27422,0,0,1.27422,-4652.17,-2131.02)">
        <g id="Logo" transform="matrix(2.3234,-6.47977e-16,-6.47977e-16,-2.3234,3576.55,1861.44)">
            <path d="M81.36,54.563C81.36,54.563 66.046,62.973 66.757,46.243C78.633,25.45 78.662,25.399 78.662,25.399C78.662,25.399 97.313,14.692 103.807,39.76L91.902,60.604C91.902,60.604 45.644,86.89 44.291,36.871L57.686,13.419C57.686,13.419 73.12,3.176 100.186,13.638" style="fill:none;stroke-width:4.22px;stroke:rgb(198,198,198);"/>
            <path d="M78.662,25.399C78.662,25.399 93.976,16.989 93.265,33.719C81.389,54.512 81.36,54.563 81.36,54.563C81.36,54.563 61.589,65.745 56.215,40.202L68.119,19.358C68.119,19.358 114.377,-6.928 115.73,43.091L102.336,66.543C94.423,73.475 82.726,75.666 72.705,72.728C66.872,71.018 61.65,67.875 56.44,64.835" style="fill:none;stroke-width:4.22px;stroke:rgb(198,198,198);"/>
        </g>
        <g transform="matrix(2.79527,0,0,2.79527,2397.4,675.96)">
            <g transform="matrix(1,0,0,1,2.53393,0)">
                <rect x="537.281" y="372.679" width="6.198" height="30.988" style="fill:white;fill-opacity:0.792157;fill-rule:nonzero;"/>
            </g>
            <g transform="matrix(1,0,0,1,3.37858,0)">
                <path d="M565.686,372.103C556.833,372.103 549.617,379.319 549.617,388.173C549.617,397.026 556.833,404.242 565.686,404.242C574.54,404.242 581.756,397.026 581.756,388.173C581.756,379.319 574.54,372.103 565.686,372.103ZM565.686,378.478C571.043,378.478 575.381,382.816 575.381,388.173C575.381,393.529 571.043,397.867 565.686,397.867C560.33,397.867 555.992,393.529 555.992,388.173C555.992,382.816 560.33,378.478 565.686,378.478Z" style="fill:white;fill-opacity:0.792157;fill-rule:nonzero;"/>
            </g>
            <path d="M615.488,403.711L615.488,384.72L606.59,392.821L597.692,384.72L597.692,403.711L591.495,403.711L591.495,372.679L593.62,372.679L606.59,384.454L619.517,372.679L621.686,372.679L621.686,403.711L615.488,403.711Z" style="fill:white;fill-opacity:0.792157;fill-rule:nonzero;"/>
            <path d="M652.541,372.679L631.867,372.679L631.867,378.876L652.541,378.876L652.541,372.679ZM631.867,390.829L648.999,390.829L648.999,384.631L631.867,384.631L631.867,390.829ZM631.867,403.711L652.408,403.711L652.408,397.513L631.867,397.513L631.867,403.711Z" style="fill:white;fill-opacity:0.792157;fill-rule:nonzero;"/>
            <path d="M662.722,372.679L662.722,403.667L665.246,403.667L665.246,403.711L671.487,403.711C673.568,403.711 675.604,403.312 677.508,402.471C679.367,401.719 681.005,400.568 682.422,399.151C683.883,397.735 684.989,396.097 685.742,394.237C686.583,392.334 686.981,390.298 686.981,388.173C686.981,386.092 686.583,384.056 685.742,382.152C684.989,380.293 683.883,378.655 682.422,377.194C681.005,375.778 679.367,374.671 677.508,373.874C675.604,373.077 673.568,372.679 671.487,372.679L662.722,372.679ZM668.92,397.513L668.92,378.876L671.487,378.876C676.623,378.876 680.784,383.038 680.784,388.173C680.784,393.308 676.623,397.513 671.487,397.513L668.92,397.513Z" style="fill:white;fill-opacity:0.792157;fill-rule:nonzero;"/>
        </g>
    </g>
</svg>
